<svg width="16" height="16" viewBox="0 0 16 16" fill="none" xmlns="http://www.w3.org/2000/svg">
<path fill-rule="evenodd" clip-rule="evenodd" d="M8 0C5.23858 0 3 2.23858 3 5V7.94722C3 7.99658 2.98539 8.04483 2.95801 8.0859L1.25488 10.6406C1.08868 10.8899 1 11.1828 1 11.4824C1 12.3206 1.67945 13 2.51759 13H13.4824C14.3206 13 15 12.3206 15 11.4824C15 11.1828 14.9113 10.8899 14.7451 10.6406L13.042 8.0859C13.0146 8.04483 13 7.99658 13 7.94722V5C13 2.23858 10.7614 0 8 0ZM4.5 5C4.5 3.067 6.067 1.5 8 1.5C9.933 1.5 11.5 3.067 11.5 5V7.94722C11.5 8.29272 11.6023 8.63048 11.7939 8.91795L13.497 11.4726C13.499 11.4755 13.5 11.4789 13.5 11.4824C13.5 11.4847 13.4995 11.4873 13.4995 11.4873L13.4989 11.489C13.4989 11.489 13.497 11.4927 13.4948 11.4948C13.4927 11.497 13.489 11.4989 13.489 11.4989C13.489 11.4989 13.4862 11.5 13.4824 11.5H2.51759C2.51378 11.5 2.51097 11.4989 2.51097 11.4989C2.51097 11.4989 2.50729 11.497 2.50515 11.4948C2.50302 11.4927 2.50107 11.489 2.50107 11.489C2.50107 11.489 2.5 11.4862 2.5 11.4824C2.5 11.4789 2.50103 11.4755 2.50295 11.4726L4.20609 8.91795C4.39773 8.63048 4.5 8.29272 4.5 7.94722V5Z" fill="#24292E"/>
<path d="M9.98458 14.2495C9.86177 15.2363 9.02007 16 7.99999 16C6.97991 16 6.13821 15.2363 6.0154 14.2495C5.99835 14.1125 6.11192 14 6.24999 14H9.74999C9.88806 14 10.0016 14.1125 9.98458 14.2495Z" fill="#24292E"/>
</svg>
