<svg width="16" height="16" viewBox="0 0 16 16" fill="none" xmlns="http://www.w3.org/2000/svg">
<path fill-rule="evenodd" clip-rule="evenodd" d="M9.59796 1.59115C9.80375 1.38536 10.11 1.3172 10.3837 1.4163C13.075 2.39093 15 4.96959 15 7.99976C15 11.8658 11.866 14.9998 8.00001 14.9998C4.96983 14.9998 2.39117 13.0748 1.41654 10.3834C1.31745 10.1098 1.3856 9.8035 1.5914 9.59771C1.79719 9.39192 2.10345 9.32376 2.37709 9.42286C2.96068 9.6342 3.59102 9.74976 4.25001 9.74976C7.28757 9.74976 9.75001 7.28733 9.75001 4.24976C9.75001 3.59077 9.63444 2.96044 9.4231 2.37685C9.32401 2.10321 9.39217 1.79694 9.59796 1.59115ZM11.214 3.53583C11.2378 3.77069 11.25 4.00887 11.25 4.24976C11.25 8.11576 8.116 11.2498 4.25001 11.2498C4.00912 11.2498 3.77094 11.2376 3.53608 11.2137C4.53522 12.5989 6.16298 13.4998 8.00001 13.4998C11.0376 13.4998 13.5 11.0373 13.5 7.99976C13.5 6.16273 12.5991 4.53497 11.214 3.53583Z" fill="#24292E"/>
</svg>
