<svg width="24" height="24" viewBox="0 0 24 24" fill="none" xmlns="http://www.w3.org/2000/svg">
<path d="M13.82 22H10.18C9.7101 22 9.30354 21.673 9.20298 21.214L8.79598 19.33C8.25303 19.0921 7.7382 18.7946 7.26098 18.443L5.42398 19.028C4.97598 19.1709 4.48897 18.9823 4.25398 18.575L2.42998 15.424C2.19757 15.0165 2.27764 14.5025 2.62298 14.185L4.04798 12.885C3.98318 12.2961 3.98318 11.7019 4.04798 11.113L2.62298 9.816C2.27713 9.49837 2.19703 8.98372 2.42998 8.576L4.24998 5.423C4.48497 5.0157 4.97198 4.82714 5.41998 4.97L7.25698 5.555C7.50104 5.37416 7.75511 5.20722 8.01798 5.055C8.27032 4.91269 8.53002 4.78385 8.79598 4.669L9.20398 2.787C9.30405 2.32797 9.71017 2.00049 10.18 2H13.82C14.2898 2.00049 14.6959 2.32797 14.796 2.787L15.208 4.67C15.4888 4.79352 15.7622 4.93308 16.027 5.088C16.2739 5.23081 16.5126 5.38739 16.742 5.557L18.58 4.972C19.0277 4.82967 19.5141 5.01816 19.749 5.425L21.569 8.578C21.8014 8.98549 21.7213 9.49951 21.376 9.817L19.951 11.117C20.0158 11.7059 20.0158 12.3001 19.951 12.889L21.376 14.189C21.7213 14.5065 21.8014 15.0205 21.569 15.428L19.749 18.581C19.5141 18.9878 19.0277 19.1763 18.58 19.034L16.742 18.449C16.5094 18.6203 16.2677 18.7789 16.018 18.924C15.7558 19.0759 15.4854 19.2131 15.208 19.335L14.796 21.214C14.6955 21.6726 14.2895 21.9996 13.82 22ZM7.61998 16.229L8.43998 16.829C8.62483 16.9652 8.81749 17.0904 9.01698 17.204C9.20468 17.3127 9.39795 17.4115 9.59598 17.5L10.529 17.909L10.986 20H13.016L13.473 17.908L14.406 17.499C14.8133 17.3194 15.1999 17.0961 15.559 16.833L16.38 16.233L18.421 16.883L19.436 15.125L17.853 13.682L17.965 12.67C18.0142 12.2274 18.0142 11.7806 17.965 11.338L17.853 10.326L19.437 8.88L18.421 7.121L16.38 7.771L15.559 7.171C15.1998 6.90671 14.8132 6.68176 14.406 6.5L13.473 6.091L13.016 4H10.986L10.527 6.092L9.59598 6.5C9.39779 6.58704 9.2045 6.68486 9.01698 6.793C8.81872 6.90633 8.62707 7.03087 8.44298 7.166L7.62198 7.766L5.58198 7.116L4.56498 8.88L6.14798 10.321L6.03598 11.334C5.98678 11.7766 5.98678 12.2234 6.03598 12.666L6.14798 13.678L4.56498 15.121L5.57998 16.879L7.61998 16.229ZM11.996 16C9.78684 16 7.99598 14.2091 7.99598 12C7.99598 9.79086 9.78684 8 11.996 8C14.2051 8 15.996 9.79086 15.996 12C15.9932 14.208 14.204 15.9972 11.996 16ZM11.996 10C10.9034 10.0011 10.0139 10.8788 9.99821 11.9713C9.98256 13.0638 10.8465 13.9667 11.9387 13.9991C13.0308 14.0315 13.9468 13.1815 13.996 12.09V12.49V12C13.996 10.8954 13.1006 10 11.996 10Z" fill="white"/>
</svg>
